HIERARCHY
ROOT Hips
{
	OFFSET 0.00000 0.00000 0.00000
	CHANNELS 6 Xposition Yposition Zposition Zrotation Yrotation Xrotation 
	JOINT LHipJoint
	{
		OFFSET 0 0 0
		CHANNELS 3 Zrotation Yrotation Xrotation
		JOINT LeftHip
		{
			OFFSET 1.58895 -1.83665 0.71753
			CHANNELS 3 Zrotation Yrotation Xrotation
			JOINT LeftKnee
			{
				OFFSET 2.50528 -6.88321 0.00000
				CHANNELS 3 Zrotation Yrotation Xrotation
				JOINT LeftAnkle
				{
					OFFSET 2.63244 -7.23257 0.00000
					CHANNELS 3 Zrotation Yrotation Xrotation
					JOINT LeftToe
					{
						OFFSET 0.23691 -0.65090 1.72750
						CHANNELS 3 Zrotation Yrotation Xrotation
						End Site
						{
							OFFSET 0.00000 -0.00000 0.92561
						}
					}
				}
			}
		}
	}
	JOINT RHipJoint
	{
		OFFSET 0 0 0
		CHANNELS 3 Zrotation Yrotation Xrotation
		JOINT RightHip
		{
			OFFSET -1.51435 -1.83665 0.71753
			CHANNELS 3 Zrotation Yrotation Xrotation
			JOINT RightKnee
			{
				OFFSET -2.54551 -6.99375 0.00000
				CHANNELS 3 Zrotation Yrotation Xrotation
				JOINT RightAnkle
				{
					OFFSET -2.66027 -7.30903 0.00000
					CHANNELS 3 Zrotation Yrotation Xrotation
					JOINT RightToe
					{
						OFFSET -0.22981 -0.63138 2.03959
						CHANNELS 3 Zrotation Yrotation Xrotation
						End Site
						{
							OFFSET -0.00000 -0.00000 1.07060
						}
					}
				}
			}
		}
	}
	JOINT lowerback
	{
		OFFSET 0 0 0
		CHANNELS 3 Zrotation Yrotation Xrotation
		JOINT Chest
		{
			OFFSET -0.02651 1.86275 -0.11152
			CHANNELS 3 Zrotation Yrotation Xrotation
			JOINT Chest2
			{
				OFFSET 0.01019 1.86224 0.04087
				CHANNELS 3 Zrotation Yrotation Xrotation
				JOINT lowerneck
				{
					OFFSET 0 0 0
					CHANNELS 3 Zrotation Yrotation Xrotation
					JOINT Neck
					{
						OFFSET -0.01926 1.80512 0.08867
						CHANNELS 3 Zrotation Yrotation Xrotation
						JOINT Head
						{
							OFFSET 0.05516 1.76451 -0.38475
							CHANNELS 3 Zrotation Yrotation Xrotation
							End Site
							{
								OFFSET 0.01592 1.82587 -0.14001
							}
						}
					}
				}
				JOINT LeftCollar
				{
					OFFSET 0 0 0
					CHANNELS 3 Zrotation Yrotation Xrotation
					JOINT LeftShoulder
					{
						OFFSET 3.47116 1.51376 0.14491
CHANNELS 3 Zrotation Xrotation Yrotation
						JOINT LeftElbow
						{
OFFSET 0 -4.780950 0.000000
CHANNELS 3 Zrotation Xrotation Yrotation
							JOINT LeftWrist
							{
OFFSET 0 -3.586150 -0.000000
CHANNELS 3 Zrotation Xrotation Yrotation
								JOINT lhand
								{
									OFFSET 0 0 0
CHANNELS 3 Zrotation Xrotation Yrotation
									JOINT LFingers
									{
OFFSET 0 -0.659810 0.000000
CHANNELS 3 Zrotation Xrotation Yrotation
										End Site
										{
OFFSET 0 -0.531960 0.000000
										}
									}
								}
								JOINT LThumb
								{
OFFSET 0 0.000000 0.000000
CHANNELS 3 Zrotation Xrotation Yrotation
									End Site
									{
OFFSET 0 -0.540080 0.540080
									}
								}
							}
						}
					}
				}
				JOINT RightCollar
				{
					OFFSET 0 0 0
					CHANNELS 3 Zrotation Yrotation Xrotation
					JOINT RightShoulder
					{
						OFFSET -3.31725 1.61216 0.35156
CHANNELS 3 Zrotation Xrotation Yrotation
						JOINT RightElbow
						{
OFFSET 0 -4.489130 0.000000
CHANNELS 3 Zrotation Xrotation Yrotation
							JOINT RightWrist
							{
OFFSET 0 -3.705100 0.000000
CHANNELS 3 Zrotation Xrotation Yrotation
								JOINT rhand
								{
									OFFSET 0 0 0
CHANNELS 3 Zrotation Xrotation Yrotation
									JOINT RFingers
									{
OFFSET 0 -0.449140 0.000000
CHANNELS 3 Zrotation Xrotation Yrotation
										End Site
										{
OFFSET 0 -0.362110 0.000000
										}
									}
								}
								JOINT RThumb
								{
OFFSET 0 0.000000 0.000000
CHANNELS 3 Zrotation Xrotation Yrotation
									End Site
									{
OFFSET 0 -0.367630 0.367630
									}
								}
							}
						}
					}
				}
			}
		}
	}
}
MOTION
Frames: 13
Frame Time: 0.008333333333333333
-0.681700 18.702400 5.758600 -2.719500 -3.947800 3.773800 0.000000 0.000000 0.000000 -11.937600 -9.255700 -2.111600 1.285300 7.184100 20.261900 2.042800 8.074400 -30.879200 7.874800 -16.026400 -52.110500 0.000000 0.000000 0.000000 0.000000 0.000000 0.000000 0.000000 0.000000 0.000000 -0.000000 -0.000000 0.000000 -0.000000 -0.000000 0.000000 0.723500 1.141500 -2.265600 0.209400 1.512400 -2.172000 -0.169600 0.748600 -0.942000 -0.665400 -1.778800 -11.064500 3.807600 -3.322500 23.909200 1.047600 -1.201800 9.427900 -0.000000 0.000000 0.000000 0.984200 11.235200 -37.392200 20.162100 -30.837200 5.614200 8.308600 0.291300 25.299800 0.000000 0.000000 0.000000 -7.125000 0.000000 0.000000 -12.935200 4.987900 -12.080200 -0.000000 0.000000 0.000000 -1.297900 15.210700 33.909500 -22.385700 -33.410200 -6.797000 -9.190400 21.505900 32.511100 0.000000 0.000000 0.000000 7.125000 0.000000 -0.000000 26.840300 60.786000 -10.771900
-0.682738 18.702832 5.758198 -2.756682 -3.938455 3.773780 0.000000 0.000000 0.000000 -11.894983 -9.300835 -2.102728 1.287172 7.188949 20.276514 2.045792 8.072097 -30.896318 7.853762 -16.010622 -52.034186 0.000000 0.000000 0.000000 0.000000 0.000000 0.000000 0.000000 0.000000 0.000000 0.000000 0.000000 0.000000 0.000000 0.000000 0.000000 0.773268 1.166459 -2.301893 0.204565 1.544619 -2.177329 -0.201119 0.764059 -0.925362 -0.596391 -1.784307 -11.052254 3.751501 -3.330855 23.914438 1.015776 -1.205575 9.425533 0.000000 0.000000 0.000000 1.008081 11.244112 -37.467982 20.276192 -30.973624 5.672861 8.063174 0.866303 24.549742 0.000000 0.000000 0.000000 -7.125000 0.000000 0.000000 -13.070077 5.745971 -12.019260 0.000000 0.000000 0.000000 -1.231193 15.272777 33.779825 -22.426518 -33.455669 -6.819451 -9.162856 21.536439 32.543582 0.000000 0.000000 0.000000 7.125000 0.000000 0.000000 26.898698 60.807969 -10.811406
-0.683541 18.702291 5.757523 -2.770363 -3.947753 3.772960 0.000000 0.000000 0.000000 -11.872619 -9.281632 -2.111703 1.288381 7.192239 20.286249 2.048168 8.021794 -30.880089 7.835005 -15.996552 -51.966056 0.000000 0.000000 0.000000 0.000000 0.000000 0.000000 0.000000 0.000000 0.000000 0.000000 0.000000 0.000000 0.000000 0.000000 0.000000 0.795714 1.180281 -2.345765 0.197483 1.562311 -2.187291 -0.219833 0.772601 -0.910147 -0.539854 -1.765106 -10.965184 3.732204 -3.308099 23.867989 1.002626 -1.193761 9.390888 0.000000 0.000000 0.000000 1.019794 11.276093 -37.513358 20.429231 -31.156038 5.751787 7.763323 1.580382 23.585375 0.000000 0.000000 0.000000 -7.125000 0.000000 0.000000 -13.239958 6.717622 -11.931066 0.000000 0.000000 0.000000 -1.204123 15.324193 33.747098 -22.443706 -33.474846 -6.828939 -9.134957 21.526582 32.581471 0.000000 0.000000 0.000000 7.125000 0.000000 0.000000 26.962630 60.834522 -10.856511
-0.684009 18.701902 5.756680 -2.784559 -3.968452 3.769763 0.000000 0.000000 0.000000 -11.855719 -9.252316 -2.115305 1.288780 7.193350 20.289455 2.048213 8.018230 -30.878623 7.830530 -15.993126 -51.949865 0.000000 0.000000 0.000000 0.000000 0.000000 0.000000 0.000000 0.000000 0.000000 0.000000 0.000000 0.000000 0.000000 0.000000 0.000000 0.815129 1.192174 -2.394028 0.207452 1.577300 -2.185159 -0.219129 0.780054 -0.880585 -0.572950 -1.764313 -10.871973 3.753509 -3.302005 23.811151 1.016774 -1.193609 9.353931 0.000000 0.000000 0.000000 1.013937 11.327747 -37.555182 20.494449 -31.233451 5.785584 7.643749 1.733594 23.387419 0.000000 0.000000 0.000000 -7.125000 0.000000 0.000000 -13.311312 6.922188 -11.945272 0.000000 0.000000 0.000000 -1.223738 15.332360 33.762408 -22.440368 -33.471120 -6.827063 -9.155485 21.525237 32.648966 0.000000 0.000000 0.000000 7.125000 0.000000 0.000000 27.004383 60.898670 -10.916186
-0.684509 18.701964 5.755402 -2.759781 -3.975916 3.759768 0.000000 0.000000 0.000000 -11.896062 -9.300129 -2.080864 1.287212 7.189252 20.277321 2.054387 8.091475 -30.961002 7.853269 -16.010300 -52.032500 0.000000 0.000000 0.000000 0.000000 0.000000 0.000000 0.000000 0.000000 0.000000 0.000000 0.000000 0.000000 0.000000 0.000000 0.000000 0.789126 1.191008 -2.403946 0.207989 1.576004 -2.181126 -0.203748 0.779711 -0.871625 -0.579591 -1.759249 -10.832969 3.748921 -3.290201 23.769329 1.017810 -1.190341 9.331576 0.000000 0.000000 0.000000 0.999246 11.360297 -37.550700 20.527206 -31.272255 5.802530 7.605452 1.802056 23.502483 0.000000 0.000000 0.000000 -7.125000 0.000000 0.000000 -13.335624 6.813475 -11.997243 0.000000 0.000000 0.000000 -1.250818 15.297233 33.813348 -22.419994 -33.448486 -6.815893 -9.179830 21.502040 32.623958 0.000000 0.000000 0.000000 7.125000 0.000000 0.000000 26.955780 60.882612 -10.884499
-0.684841 18.701900 5.754278 -2.740810 -3.977211 3.741445 0.000000 0.000000 0.000000 -11.921584 -9.317897 -2.042632 1.284665 7.182345 20.256606 2.060166 8.072292 -30.984861 7.849571 -16.007461 -52.018939 0.000000 0.000000 0.000000 0.000000 0.000000 0.000000 0.000000 0.000000 0.000000 0.000000 0.000000 0.000000 0.000000 0.000000 0.000000 0.766545 1.168903 -2.413814 0.218294 1.546683 -2.166898 -0.180699 0.765523 -0.852588 -0.618197 -1.741288 -10.816588 3.755508 -3.255915 23.710793 1.030345 -1.178207 9.307724 0.000000 0.000000 0.000000 0.940405 11.370967 -37.444676 20.554232 -31.304222 5.816547 7.576135 1.864574 23.540641 0.000000 0.000000 0.000000 -7.125000 0.000000 0.000000 -13.353923 6.778973 -12.023787 0.000000 0.000000 0.000000 -1.312477 15.289644 33.925154 -22.439204 -33.469823 -6.826456 -9.107952 21.434432 32.666298 0.000000 0.000000 0.000000 7.125000 0.000000 0.000000 27.069458 60.902541 -10.947278
-0.685191 18.702078 5.752918 -2.748390 -3.989342 3.737411 0.000000 0.000000 0.000000 -11.925048 -9.385683 -2.003851 1.283200 7.178491 20.245374 2.067614 8.088964 -31.041095 7.832786 -15.994843 -51.958036 0.000000 0.000000 0.000000 0.000000 0.000000 0.000000 0.000000 0.000000 0.000000 0.000000 0.000000 0.000000 0.000000 0.000000 0.000000 0.769549 1.156908 -2.443519 0.243327 1.530394 -2.161622 -0.156219 0.757669 -0.831351 -0.660724 -1.744295 -10.793443 3.714195 -3.239163 23.669706 1.025209 -1.179525 9.288328 0.000000 0.000000 0.000000 0.871301 11.381197 -37.373420 20.565821 -31.317938 5.822621 7.595620 1.795958 23.508784 0.000000 0.000000 0.000000 -7.125000 0.000000 0.000000 -13.341731 6.808207 -12.004440 0.000000 0.000000 0.000000 -1.371402 15.311107 33.985697 -22.463648 -33.497044 -6.839974 -9.126347 21.447844 32.753443 0.000000 0.000000 0.000000 7.125000 0.000000 0.000000 27.132187 60.983418 -11.027272
-0.684731 18.701370 5.750562 -2.770500 -4.008568 3.682049 0.000000 0.000000 0.000000 -11.918755 -9.376238 -1.946919 1.283315 7.178684 20.245875 2.061415 8.177176 -31.056443 7.849693 -16.007595 -52.019614 0.000000 0.000000 0.000000 0.000000 0.000000 0.000000 0.000000 0.000000 0.000000 0.000000 0.000000 0.000000 0.000000 0.000000 0.000000 0.828478 1.175407 -2.411352 0.226515 1.554466 -2.157108 -0.206710 0.768795 -0.842529 -0.631256 -1.758283 -10.742525 3.727819 -3.267438 23.653767 1.022025 -1.189591 9.273708 0.000000 0.000000 0.000000 0.920830 11.425819 -37.464374 20.583109 -31.338462 5.831581 7.598160 1.648367 23.482380 0.000000 0.000000 0.000000 -7.125000 0.000000 0.000000 -13.339990 6.833718 -11.995955 0.000000 0.000000 0.000000 -1.248074 15.345138 33.793665 -22.463575 -33.497029 -6.839976 -9.054122 21.533120 32.864043 0.000000 0.000000 0.000000 7.125000 0.000000 0.000000 27.311008 61.062699 -11.158155
-0.684445 18.701362 5.748975 -2.788360 -4.018366 3.638025 0.000000 0.000000 0.000000 -11.905863 -9.359889 -1.905350 1.284080 7.180749 20.251875 2.068701 8.149735 -31.084417 7.842044 -16.001894 -51.991892 0.000000 0.000000 0.000000 0.000000 0.000000 0.000000 0.000000 0.000000 0.000000 0.000000 0.000000 0.000000 0.000000 0.000000 0.000000 0.873322 1.187150 -2.384162 0.216250 1.569565 -2.153665 -0.242550 0.775701 -0.852615 -0.621347 -1.759048 -10.798563 3.743619 -3.278388 23.734449 1.024447 -1.190193 9.313052 0.000000 0.000000 0.000000 0.917182 11.446602 -37.406006 20.579191 -31.333852 5.829528 7.515794 1.736149 23.482399 0.000000 0.000000 0.000000 -7.125000 0.000000 0.000000 -13.390412 6.841463 -12.041949 0.000000 0.000000 0.000000 -1.154721 15.391031 33.655392 -22.465010 -33.498638 -6.840755 -9.016451 21.602461 33.046711 0.000000 0.000000 0.000000 7.125000 0.000000 0.000000 27.523906 61.213103 -11.351618
-0.685393 18.702207 5.746463 -2.785959 -3.998107 3.647753 0.000000 0.000000 0.000000 -11.895406 -9.366381 -1.932981 1.284335 7.181518 20.254353 2.070338 8.090887 -31.058755 7.810434 -15.978004 -51.876947 0.000000 0.000000 0.000000 0.000000 0.000000 0.000000 0.000000 0.000000 0.000000 0.000000 0.000000 0.000000 0.000000 0.000000 0.000000 0.867920 1.194848 -2.383634 0.202638 1.580041 -2.175696 -0.253606 0.780774 -0.875134 -0.547676 -1.777445 -10.839439 3.692505 -3.309535 23.783267 0.990717 -1.202315 9.336628 0.000000 0.000000 0.000000 0.913632 11.457659 -37.330252 20.555956 -31.306289 5.817478 7.500931 1.870153 23.526236 0.000000 0.000000 0.000000 -7.125000 0.000000 0.000000 -13.399781 6.800062 -12.061993 0.000000 0.000000 0.000000 -1.100459 15.415950 33.589261 -22.445723 -33.477019 -6.830066 -8.845935 21.553274 33.208996 0.000000 0.000000 0.000000 7.125000 0.000000 0.000000 27.856041 61.313021 -11.567217
-0.684935 18.702178 5.744054 -2.770654 -3.993129 3.631462 0.000000 0.000000 0.000000 -11.914607 -9.351902 -1.920854 1.282873 7.177480 20.242322 2.056114 8.133740 -30.997616 7.826173 -15.989885 -51.934190 0.000000 0.000000 0.000000 0.000000 0.000000 0.000000 0.000000 0.000000 0.000000 0.000000 0.000000 0.000000 0.000000 0.000000 0.000000 0.849701 1.184161 -2.375703 0.221861 1.566178 -2.167912 -0.224066 0.774193 -0.872739 -0.546814 -1.770473 -10.810691 3.650879 -3.286572 23.720207 0.978831 -1.197368 9.307670 0.000000 0.000000 0.000000 0.883249 11.460893 -37.326456 20.564123 -31.316018 5.821683 7.548720 1.859926 23.525847 0.000000 0.000000 0.000000 -7.125000 0.000000 0.000000 -13.370556 6.795971 -12.035147 0.000000 0.000000 0.000000 -1.146674 15.395647 33.624886 -22.438394 -33.468964 -6.826092 -8.729938 21.466293 33.151679 0.000000 0.000000 0.000000 7.125000 0.000000 0.000000 27.920242 61.234824 -11.544314
-0.683952 18.701925 5.742355 -2.737704 -3.986329 3.603056 0.000000 0.000000 0.000000 -11.955702 -9.345534 -1.885323 1.281503 7.173833 20.231499 2.060180 8.094799 -30.998677 7.819941 -15.985218 -51.911431 0.000000 0.000000 0.000000 0.000000 0.000000 0.000000 0.000000 0.000000 0.000000 0.000000 0.000000 0.000000 0.000000 0.000000 0.000000 0.816214 1.153854 -2.368463 0.239958 1.526354 -2.155939 -0.187500 0.754876 -0.866315 -0.589167 -1.733299 -10.765528 3.665288 -3.225868 23.652370 0.997877 -1.172839 9.274677 0.000000 0.000000 0.000000 0.846244 11.470221 -37.297754 20.569442 -31.322345 5.824484 7.581864 1.810166 23.489204 0.000000 0.000000 0.000000 -7.125000 0.000000 0.000000 -13.349988 6.828655 -12.006862 0.000000 0.000000 0.000000 -1.219359 15.429171 33.704392 -22.461483 -33.494676 -6.838813 -8.780912 21.484823 32.935725 0.000000 0.000000 0.000000 7.125000 0.000000 0.000000 27.660587 61.059099 -11.311376
-0.683457 18.702217 5.739526 -2.724301 -4.012349 3.580696 0.000000 0.000000 0.000000 -11.981532 -9.378958 -1.840539 1.280631 7.171409 20.224136 2.077349 8.066089 -31.086688 7.800158 -15.970298 -51.839745 0.000000 0.000000 0.000000 0.000000 0.000000 0.000000 0.000000 0.000000 0.000000 0.000000 0.000000 0.000000 0.000000 0.000000 0.000000 0.816477 1.156542 -2.342548 0.227798 1.530272 -2.163939 -0.200771 0.756668 -0.888600 -0.568011 -1.728319 -10.779558 3.682859 -3.229055 23.678958 0.999957 -1.170067 9.286752 0.000000 0.000000 0.000000 0.867583 11.478826 -37.277541 20.544359 -31.292598 5.811453 7.557593 1.851259 23.516676 0.000000 0.000000 0.000000 -7.125000 0.000000 0.000000 -13.365139 6.804053 -12.027815 0.000000 0.000000 0.000000 -1.207969 15.469444 33.683983 -22.453535 -33.485757 -6.834437 -8.838419 21.609317 32.749891 0.000000 0.000000 0.000000 7.125000 0.000000 0.000000 27.425337 60.910785 -11.109317
